<mxfile host="65bd71144e" modified="2020-11-18T05:21:50.271Z" agent="5.0 (Windows NT 10.0; Win64; x64) AppleWebKit/537.36 (KHTML, like Gecko) Code/1.51.1 Chrome/83.0.4103.122 Electron/9.3.3 Safari/537.36" etag="2ldbXRuQxm00i9AAD7CO" version="13.6.5">
    <diagram id="dvh3ZRscFOBX120WxIjQ" name="第 1 页">
        <mxGraphModel dx="675" dy="163" grid="0" gridSize="10" guides="1" tooltips="1" connect="1" arrows="1" fold="1" page="0" pageScale="1" pageWidth="850" pageHeight="1100" math="0" shadow="0">
            <root>
                <mxCell id="0"/>
                <mxCell id="1" parent="0"/>
                <mxCell id="2" value="PrintReceipt" style="rounded=0;whiteSpace=wrap;html=1;fontFamily=source code pro;" parent="1" vertex="1">
                    <mxGeometry x="120" y="80" width="120" height="500" as="geometry"/>
                </mxCell>
                <mxCell id="3" value="" style="endArrow=classic;html=1;fontFamily=source code pro;" parent="1" edge="1">
                    <mxGeometry relative="1" as="geometry">
                        <mxPoint x="-43" y="140" as="sourcePoint"/>
                        <mxPoint x="100" y="140" as="targetPoint"/>
                    </mxGeometry>
                </mxCell>
                <mxCell id="4" value="tags:string[]&lt;br&gt;allItems:Object[]&lt;br&gt;promotions:Object[]" style="edgeLabel;resizable=0;html=1;align=center;verticalAlign=middle;fontFamily=source code pro;" parent="3" connectable="0" vertex="1">
                    <mxGeometry relative="1" as="geometry"/>
                </mxCell>
                <mxCell id="5" value="" style="endArrow=classic;html=1;fontFamily=source code pro;" parent="1" edge="1">
                    <mxGeometry relative="1" as="geometry">
                        <mxPoint x="110" y="470" as="sourcePoint"/>
                        <mxPoint x="-41" y="470" as="targetPoint"/>
                    </mxGeometry>
                </mxCell>
                <mxCell id="6" value="receipt:string" style="edgeLabel;resizable=0;html=1;align=center;verticalAlign=middle;fontFamily=source code pro;" parent="5" connectable="0" vertex="1">
                    <mxGeometry relative="1" as="geometry"/>
                </mxCell>
                <mxCell id="9" value="mapInputItems" style="rounded=0;whiteSpace=wrap;html=1;fontFamily=source code pro;" parent="1" vertex="1">
                    <mxGeometry x="425" y="80" width="120" height="111" as="geometry"/>
                </mxCell>
                <mxCell id="11" value="calculateEachPromotions" style="rounded=0;whiteSpace=wrap;html=1;fontFamily=source code pro;" parent="1" vertex="1">
                    <mxGeometry x="702" y="327.5" width="170" height="95" as="geometry"/>
                </mxCell>
                <mxCell id="12" value="buildReceipt" style="rounded=0;whiteSpace=wrap;html=1;fontFamily=source code pro;" parent="1" vertex="1">
                    <mxGeometry x="425" y="520" width="120" height="60" as="geometry"/>
                </mxCell>
                <mxCell id="14" value="&lt;div style=&quot;background-color: rgb(30 , 30 , 30) ; font-family: &amp;#34;source code pro&amp;#34; , &amp;#34;consolas&amp;#34; , &amp;#34;courier new&amp;#34; , monospace ; font-size: 13px ; line-height: 18px&quot;&gt;&lt;font color=&quot;#ffffff&quot;&gt;calculatePromotions&lt;/font&gt;&lt;/div&gt;" style="rounded=0;whiteSpace=wrap;html=1;fontFamily=source code pro;" parent="1" vertex="1">
                    <mxGeometry x="425" y="290" width="155" height="170" as="geometry"/>
                </mxCell>
                <mxCell id="18" value="" style="endArrow=classic;html=1;fontFamily=source code pro;" parent="1" edge="1">
                    <mxGeometry relative="1" as="geometry">
                        <mxPoint x="377.9999999999998" y="165" as="sourcePoint"/>
                        <mxPoint x="278" y="165" as="targetPoint"/>
                    </mxGeometry>
                </mxCell>
                <mxCell id="19" value="input items:Map" style="edgeLabel;resizable=0;html=1;align=center;verticalAlign=middle;fontFamily=source code pro;" parent="18" connectable="0" vertex="1">
                    <mxGeometry relative="1" as="geometry"/>
                </mxCell>
                <mxCell id="32" value="" style="endArrow=classic;html=1;fontFamily=source code pro;" parent="1" edge="1">
                    <mxGeometry relative="1" as="geometry">
                        <mxPoint x="589.9999999999998" y="356" as="sourcePoint"/>
                        <mxPoint x="689.9999999999998" y="356" as="targetPoint"/>
                    </mxGeometry>
                </mxCell>
                <mxCell id="33" value="items:Item[]&lt;br&gt;promotion:&lt;br&gt;Promotion" style="edgeLabel;resizable=0;html=1;align=center;verticalAlign=middle;fontFamily=source code pro;" parent="32" connectable="0" vertex="1">
                    <mxGeometry relative="1" as="geometry"/>
                </mxCell>
                <mxCell id="34" value="" style="endArrow=classic;html=1;fontFamily=source code pro;" parent="1" edge="1">
                    <mxGeometry relative="1" as="geometry">
                        <mxPoint x="699" y="396" as="sourcePoint"/>
                        <mxPoint x="582" y="396" as="targetPoint"/>
                    </mxGeometry>
                </mxCell>
                <mxCell id="35" value="subTotal:number" style="edgeLabel;resizable=0;html=1;align=center;verticalAlign=middle;fontFamily=source code pro;" parent="34" connectable="0" vertex="1">
                    <mxGeometry relative="1" as="geometry">
                        <mxPoint x="0.4" as="offset"/>
                    </mxGeometry>
                </mxCell>
                <mxCell id="37" value="" style="endArrow=classic;html=1;fontFamily=source code pro;" parent="1" edge="1">
                    <mxGeometry relative="1" as="geometry">
                        <mxPoint x="260" y="320" as="sourcePoint"/>
                        <mxPoint x="400" y="320" as="targetPoint"/>
                    </mxGeometry>
                </mxCell>
                <mxCell id="38" value="input items:Map" style="edgeLabel;resizable=0;html=1;align=center;verticalAlign=middle;fontFamily=source code pro;" parent="37" connectable="0" vertex="1">
                    <mxGeometry relative="1" as="geometry"/>
                </mxCell>
                <mxCell id="40" value="" style="endArrow=classic;html=1;fontFamily=source code pro;" parent="1" edge="1">
                    <mxGeometry relative="1" as="geometry">
                        <mxPoint x="406" y="423" as="sourcePoint"/>
                        <mxPoint x="253" y="423" as="targetPoint"/>
                    </mxGeometry>
                </mxCell>
                <mxCell id="41" value="subtotals:number[]" style="edgeLabel;resizable=0;html=1;align=center;verticalAlign=middle;fontFamily=source code pro;" parent="40" connectable="0" vertex="1">
                    <mxGeometry relative="1" as="geometry"/>
                </mxCell>
                <mxCell id="43" value="" style="endArrow=classic;html=1;fontFamily=source code pro;" parent="1" edge="1">
                    <mxGeometry relative="1" as="geometry">
                        <mxPoint x="256" y="530" as="sourcePoint"/>
                        <mxPoint x="413" y="530" as="targetPoint"/>
                    </mxGeometry>
                </mxCell>
                <mxCell id="44" value="input items:Map&lt;br&gt;subTotals:number[]" style="edgeLabel;resizable=0;html=1;align=center;verticalAlign=middle;fontFamily=source code pro;" parent="43" connectable="0" vertex="1">
                    <mxGeometry relative="1" as="geometry">
                        <mxPoint x="-6" as="offset"/>
                    </mxGeometry>
                </mxCell>
                <mxCell id="46" value="" style="endArrow=classic;html=1;fontFamily=source code pro;" parent="1" edge="1">
                    <mxGeometry relative="1" as="geometry">
                        <mxPoint x="396" y="570" as="sourcePoint"/>
                        <mxPoint x="260" y="570" as="targetPoint"/>
                    </mxGeometry>
                </mxCell>
                <mxCell id="47" value="receipt:string" style="edgeLabel;resizable=0;html=1;align=center;verticalAlign=middle;fontFamily=source code pro;" parent="46" connectable="0" vertex="1">
                    <mxGeometry relative="1" as="geometry"/>
                </mxCell>
                <mxCell id="48" value="Map{&lt;br&gt;&amp;nbsp; key:barcode,&lt;br&gt;&amp;nbsp; value:Item{&lt;br&gt;&amp;nbsp; &amp;nbsp; barcode:string,&lt;br&gt;&amp;nbsp; &amp;nbsp; name:string,&lt;br&gt;&amp;nbsp; &amp;nbsp; unit:string,&lt;br&gt;&amp;nbsp; &amp;nbsp; price:number,&lt;br&gt;&amp;nbsp; &amp;nbsp; quantity:number&lt;br&gt;&amp;nbsp; }&lt;br&gt;}" style="text;html=1;align=left;verticalAlign=middle;resizable=0;points=[];autosize=1;fontFamily=source code pro;" parent="1" vertex="1">
                    <mxGeometry x="748.5" y="179" width="110" height="140" as="geometry"/>
                </mxCell>
                <mxCell id="49" value="Item{&lt;br&gt;&amp;nbsp; &amp;nbsp; barcode:string,&lt;br&gt;&amp;nbsp; &amp;nbsp; name:string,&lt;br&gt;&amp;nbsp; &amp;nbsp; unit:string,&lt;br&gt;&amp;nbsp; &amp;nbsp; price:number,&lt;br&gt;&amp;nbsp; &amp;nbsp; quantity:number,&lt;br&gt;&amp;nbsp; &amp;nbsp; toOutput():string&lt;br&gt;}" style="text;html=1;align=left;verticalAlign=middle;resizable=0;points=[];autosize=1;fontFamily=source code pro;" vertex="1" parent="1">
                    <mxGeometry x="580" y="79.5" width="112" height="113" as="geometry"/>
                </mxCell>
                <mxCell id="50" value="Promotion{&lt;br&gt;&amp;nbsp; &amp;nbsp; type:string,&lt;br&gt;&amp;nbsp; &amp;nbsp; barcodes:string[],&lt;br&gt;&amp;nbsp; &amp;nbsp; calculatePromotion():number&lt;br&gt;}" style="text;html=1;align=left;verticalAlign=middle;resizable=0;points=[];autosize=1;fontFamily=source code pro;" vertex="1" parent="1">
                    <mxGeometry x="748.5" y="80" width="177" height="72" as="geometry"/>
                </mxCell>
                <mxCell id="53" value="" style="endArrow=classic;html=1;fontFamily=source code pro;" edge="1" parent="1">
                    <mxGeometry relative="1" as="geometry">
                        <mxPoint x="253" y="114" as="sourcePoint"/>
                        <mxPoint x="405" y="114" as="targetPoint"/>
                    </mxGeometry>
                </mxCell>
                <mxCell id="54" value="tags:string[]&lt;br&gt;allItems:Item[]" style="edgeLabel;resizable=0;html=1;align=center;verticalAlign=middle;fontFamily=source code pro;" connectable="0" vertex="1" parent="53">
                    <mxGeometry relative="1" as="geometry">
                        <mxPoint x="-1.29" y="-1" as="offset"/>
                    </mxGeometry>
                </mxCell>
            </root>
        </mxGraphModel>
    </diagram>
</mxfile>